<mxfile host="app.diagrams.net" modified="2023-09-01T01:50:33.975Z" agent="Mozilla/5.0 (Windows NT 10.0; Win64; x64) AppleWebKit/537.36 (KHTML, like Gecko) Chrome/116.0.0.0 Safari/537.36" etag="W092LjF5hticQCwMDBog" version="21.6.9" type="github">
  <diagram name="第 1 页" id="GsnLHu1mU1_SpcdjQGpp">
    <mxGraphModel dx="2074" dy="1118" grid="1" gridSize="10" guides="1" tooltips="1" connect="1" arrows="1" fold="1" page="1" pageScale="1" pageWidth="827" pageHeight="1169" math="0" shadow="0">
      <root>
        <mxCell id="0" />
        <mxCell id="1" parent="0" />
        <mxCell id="dBJFyJfBxBcrwofeWbme-2" value="找家纺" style="rounded=1;whiteSpace=wrap;html=1;" vertex="1" parent="1">
          <mxGeometry x="100" y="320" width="120" height="60" as="geometry" />
        </mxCell>
        <mxCell id="dBJFyJfBxBcrwofeWbme-3" value="纺支宝" style="rounded=1;whiteSpace=wrap;html=1;" vertex="1" parent="1">
          <mxGeometry x="490" y="320" width="120" height="60" as="geometry" />
        </mxCell>
        <mxCell id="dBJFyJfBxBcrwofeWbme-5" value="&lt;h1&gt;商品类型&lt;/h1&gt;&lt;div&gt;库存商品&lt;/div&gt;&lt;div&gt;代发拿货商品&lt;/div&gt;&lt;div&gt;厂家直发商品&lt;/div&gt;" style="text;html=1;strokeColor=none;fillColor=none;spacing=5;spacingTop=-20;whiteSpace=wrap;overflow=hidden;rounded=0;" vertex="1" parent="1">
          <mxGeometry x="90" y="465" width="190" height="120" as="geometry" />
        </mxCell>
        <mxCell id="dBJFyJfBxBcrwofeWbme-6" value="&lt;h1&gt;商品类型&lt;/h1&gt;&lt;div&gt;库存商品&lt;/div&gt;&lt;div&gt;&lt;span style=&quot;background-color: rgb(255, 37, 13);&quot;&gt;自发拿货商品&lt;/span&gt;&lt;/div&gt;&lt;div&gt;代发拿货商品&lt;/div&gt;&lt;div&gt;厂家直发商品&lt;/div&gt;" style="text;html=1;strokeColor=none;fillColor=none;spacing=5;spacingTop=-20;whiteSpace=wrap;overflow=hidden;rounded=0;" vertex="1" parent="1">
          <mxGeometry x="500" y="465" width="190" height="120" as="geometry" />
        </mxCell>
        <mxCell id="dBJFyJfBxBcrwofeWbme-7" value="自发拿货商品：&lt;br&gt;对应备货单" style="text;html=1;align=center;verticalAlign=middle;resizable=0;points=[];autosize=1;strokeColor=none;fillColor=none;" vertex="1" parent="1">
          <mxGeometry x="455" y="613" width="110" height="40" as="geometry" />
        </mxCell>
      </root>
    </mxGraphModel>
  </diagram>
</mxfile>
